<svg width="143.000000" height="46.000000" viewBox="0 0 143 46" fill="none" xmlns="http://www.w3.org/2000/svg" xmlns:xlink="http://www.w3.org/1999/xlink">
	<desc>
			Created with Pixso.
	</desc>
	<defs>
		<clipPath id="clip40_3741">
			<rect id="navigate_next" rx="0.000000" width="14.000000" height="14.000000" transform="translate(116.500000 18.500000)" fill="white" fill-opacity="0"/>
		</clipPath>
		<clipPath id="clip40_3744">
			<rect id="navigate_next" rx="0.000000" width="14.000000" height="14.000000" transform="translate(122.500000 18.500000)" fill="white" fill-opacity="0"/>
		</clipPath>
		<clipPath id="clip40_3747">
			<rect id="navigate_next" rx="0.000000" width="14.000000" height="14.000000" transform="translate(128.500000 18.500000)" fill="white" fill-opacity="0"/>
		</clipPath>
	</defs>
	<path id="Все новости" d="M17.33 28.44L13.36 28.44L13.36 17.19L17.2 17.19C18.96 17.19 20.24 18.26 20.24 20.02C20.24 21.19 19.68 22.04 18.82 22.47L18.82 22.5C19.97 22.82 20.71 23.94 20.71 25.28C20.71 27.28 19.22 28.44 17.33 28.44ZM14.47 18.18L14.47 22.07L17.2 22.07C18.34 22.07 19.11 21.27 19.11 20.1C19.11 18.95 18.37 18.18 17.17 18.18L14.47 18.18ZM26.58 28.63C24.2 28.63 22.36 26.92 22.36 24.42C22.36 21.94 24.21 20.2 26.58 20.2C27.64 20.2 28.8 20.56 29.52 21.35L28.96 22.16C28.4 21.59 27.51 21.17 26.61 21.17C24.85 21.17 23.48 22.5 23.48 24.42C23.48 26.31 24.85 27.64 26.64 27.64C27.57 27.64 28.58 27.24 29.22 26.53L29.72 27.35C29.01 28.13 27.81 28.63 26.58 28.63ZM35.06 28.63C32.66 28.63 30.84 26.9 30.84 24.42C30.84 21.78 32.65 20.2 34.82 20.2C37.05 20.2 38.18 21.91 38.18 23.91C38.18 24.08 38.17 24.28 38.15 24.45L31.98 24.45C32.02 26.5 33.43 27.64 35.1 27.64C35.98 27.64 36.89 27.27 37.54 26.68L38.04 27.51C37.29 28.2 36.12 28.63 35.06 28.63ZM57.39 28.63C55.04 28.63 53.15 26.8 53.15 24.37C53.15 21.99 55.04 20.2 57.39 20.2C59.75 20.2 61.65 21.99 61.65 24.37C61.65 26.8 59.75 28.63 57.39 28.63ZM75.42 28.63C73.07 28.63 71.18 26.8 71.18 24.37C71.18 21.99 73.07 20.2 75.42 20.2C77.78 20.2 79.68 21.99 79.68 24.37C79.68 26.8 77.78 28.63 75.42 28.63ZM85.39 28.63C83.01 28.63 81.17 26.92 81.17 24.42C81.17 21.94 83.02 20.2 85.39 20.2C86.45 20.2 87.62 20.56 88.34 21.35L87.78 22.16C87.22 21.59 86.32 21.17 85.42 21.17C83.66 21.17 82.29 22.5 82.29 24.42C82.29 26.31 83.66 27.64 85.46 27.64C86.38 27.64 87.39 27.24 88.03 26.53L88.53 27.35C87.82 28.13 86.62 28.63 85.39 28.63ZM45.32 28.44L44.23 28.44L44.23 20.39L45.32 20.39L45.32 23.83L50.02 23.83L50.02 20.39L51.11 20.39L51.11 28.44L50.02 28.44L50.02 24.79L45.32 24.79L45.32 28.44ZM66.75 28.44L63.68 28.44L63.68 20.39L66.59 20.39C68.23 20.39 69.25 21.11 69.25 22.44C69.25 23.27 68.82 23.92 68.03 24.21L68.03 24.24C69.07 24.45 69.67 25.24 69.67 26.18C69.67 27.57 68.56 28.44 66.75 28.44ZM93.47 28.44L92.38 28.44L92.38 21.35L89.46 21.35L89.46 20.39L96.42 20.39L96.42 21.35L93.47 21.35L93.47 28.44ZM99.13 28.44L98.09 28.44L98.09 20.39L99.14 20.39L99.14 25.67C99.14 26.16 99.11 26.84 99.1 26.87L99.13 26.87C99.16 26.8 99.64 26.12 99.96 25.67L103.91 20.39L104.95 20.39L104.95 28.44L103.88 28.44L103.88 23.14C103.88 22.68 103.93 22.04 103.93 21.97L103.9 21.97C103.88 22.05 103.38 22.69 103.08 23.14L99.13 28.44ZM34.79 21.09C33.45 21.09 32.28 21.97 32.02 23.59L37.08 23.59C37.02 21.91 35.99 21.09 34.79 21.09ZM57.39 21.17C55.67 21.17 54.27 22.55 54.27 24.37C54.27 26.26 55.67 27.64 57.39 27.64C59.12 27.64 60.53 26.26 60.53 24.37C60.53 22.55 59.12 21.17 57.39 21.17ZM75.42 21.17C73.7 21.17 72.3 22.55 72.3 24.37C72.3 26.26 73.7 27.64 75.42 27.64C77.15 27.64 78.56 26.26 78.56 24.37C78.56 22.55 77.15 21.17 75.42 21.17ZM64.77 21.22L64.77 23.88L66.48 23.88C67.57 23.88 68.13 23.36 68.13 22.5C68.13 21.64 67.55 21.22 66.42 21.22L64.77 21.22ZM14.47 23.03L14.47 27.44L17.35 27.44C18.7 27.44 19.55 26.6 19.55 25.25C19.55 23.91 18.64 23.03 17.33 23.03L14.47 23.03ZM64.77 24.71L64.77 27.59L66.61 27.59C67.94 27.59 68.55 27.03 68.55 26.16C68.55 25.22 67.84 24.71 66.59 24.71L64.77 24.71Z" fill="#956D84" fill-opacity="1.000000" fill-rule="evenodd"/>
	<g opacity="0.400000">
		<rect id="navigate_next" rx="0.000000" width="14.000000" height="14.000000" transform="translate(116.500000 18.500000)" fill="#FFFFFF" fill-opacity="0"/>
		<g clip-path="url(#clip40_3741)">
			<path id="Vector" d="M122.25 21.75L121.36 22.63L124.23 25.5L121.36 28.36L122.25 29.25L126 25.5L122.25 21.75Z" fill="#956D84" fill-opacity="1.000000" fill-rule="nonzero"/>
		</g>
	</g>
	<g opacity="0.700000">
		<rect id="navigate_next" rx="0.000000" width="14.000000" height="14.000000" transform="translate(122.500000 18.500000)" fill="#FFFFFF" fill-opacity="0"/>
		<g clip-path="url(#clip40_3744)">
			<path id="Vector" d="M128.25 21.75L127.36 22.63L130.23 25.5L127.36 28.36L128.25 29.25L132 25.5L128.25 21.75Z" fill="#956D84" fill-opacity="1.000000" fill-rule="nonzero"/>
		</g>
	</g>
	<g opacity="0.900000">
		<rect id="navigate_next" rx="0.000000" width="14.000000" height="14.000000" transform="translate(128.500000 18.500000)" fill="#FFFFFF" fill-opacity="0"/>
		<g clip-path="url(#clip40_3747)">
			<path id="Vector" d="M134.25 21.75L133.36 22.63L136.23 25.5L133.36 28.36L134.25 29.25L138 25.5L134.25 21.75Z" fill="#956D84" fill-opacity="1.000000" fill-rule="nonzero"/>
		</g>
	</g>
</svg>
