<svg width="38.000000" height="35.001953" viewBox="0 0 38 35.002" fill="none" xmlns="http://www.w3.org/2000/svg" xmlns:xlink="http://www.w3.org/1999/xlink">
	<desc>
			Created with Pixso.
	</desc>
	<defs/>
	<path id="Vector" d="M10.63 25.33L10.63 25.33C10.63 25.33 10.63 25.33 10.63 25.33L28.16 25.33C28.59 25.33 28.97 25.04 29.09 24.63L32.96 11.09C33.04 10.8 32.98 10.49 32.8 10.25C32.62 10 32.33 9.86 32.03 9.86L8.4 9.86L7.71 6.75C7.61 6.31 7.22 5.99 6.76 5.99L0.96 5.99C0.43 5.99 0 6.43 0 6.96C0 7.49 0.43 7.93 0.96 7.93L5.99 7.93C6.11 8.48 9.29 22.81 9.48 23.63C8.45 24.08 7.73 25.11 7.73 26.3C7.73 27.9 9.03 29.2 10.63 29.2L28.16 29.2C28.7 29.2 29.13 28.76 29.13 28.23C29.13 27.7 28.7 27.26 28.16 27.26L10.63 27.26C10.1 27.26 9.66 26.83 9.66 26.3C9.66 25.76 10.1 25.33 10.63 25.33ZM30.75 11.79L27.43 23.4L11.41 23.4L8.83 11.79L30.75 11.79Z" fill="#956D84" fill-opacity="1.000000" fill-rule="nonzero"/>
	<path id="Vector" d="M9.66 32.1C9.66 33.7 10.96 35 12.56 35C14.16 35 15.46 33.7 15.46 32.1C15.46 30.5 14.16 29.2 12.56 29.2C10.96 29.2 9.66 30.5 9.66 32.1ZM12.56 31.13C13.1 31.13 13.53 31.56 13.53 32.1C13.53 32.63 13.1 33.06 12.56 33.06C12.03 33.06 11.6 32.63 11.6 32.1C11.6 31.56 12.03 31.13 12.56 31.13Z" fill="#956D84" fill-opacity="1.000000" fill-rule="nonzero"/>
	<path id="Vector" d="M23.33 32.1C23.33 33.7 24.63 35 26.23 35C27.83 35 29.13 33.7 29.13 32.1C29.13 30.5 27.83 29.2 26.23 29.2C24.63 29.2 23.33 30.5 23.33 32.1ZM26.23 31.13C26.76 31.13 27.19 31.56 27.19 32.1C27.19 32.63 26.76 33.06 26.23 33.06C25.69 33.06 25.26 32.63 25.26 32.1C25.26 31.56 25.69 31.13 26.23 31.13Z" fill="#956D84" fill-opacity="1.000000" fill-rule="nonzero"/>
	<circle id="Ellipse 3" cx="30.000000" cy="8.000000" r="8.000000" fill="#956D84" fill-opacity="1.000000"/>
	<path id="1" d="M29.91 10.11L28.8 10.11L28.8 11L32 11L32 10.11L30.91 10.11L30.91 5.3L30.32 5.3L28.5 6.77L28.94 7.37L29.65 6.88L30.03 6.41L29.91 6.96L29.91 10.11Z" fill="#FFFFFF" fill-opacity="1.000000" fill-rule="evenodd"/>
</svg>
