<svg width="32.999939" height="29.359375" viewBox="0 0 32.9999 29.3594" fill="none" xmlns="http://www.w3.org/2000/svg" xmlns:xlink="http://www.w3.org/1999/xlink">
	<desc>
			Created with Pixso.
	</desc>
	<defs/>
	<path id="Vector" d="M16.5 29.35C16.03 29.35 15.57 29.18 15.22 28.88C13.89 27.71 12.6 26.61 11.47 25.65L11.46 25.64C8.14 22.81 5.27 20.36 3.27 17.95C1.04 15.26 0 12.7 0 9.91C0 7.2 0.92 4.7 2.61 2.87C4.32 1.02 6.67 0 9.21 0C11.12 0 12.86 0.6 14.4 1.78C15.17 2.38 15.88 3.12 16.5 3.97C17.11 3.12 17.82 2.38 18.59 1.78C20.13 0.6 21.87 0 23.78 0C26.32 0 28.67 1.02 30.38 2.87C32.07 4.7 32.99 7.2 32.99 9.91C32.99 12.7 31.96 15.26 29.72 17.95C27.72 20.36 24.85 22.81 21.53 25.64C20.39 26.61 19.11 27.71 17.77 28.88C17.42 29.18 16.96 29.35 16.5 29.35ZM9.21 1.93C7.21 1.93 5.37 2.73 4.03 4.18C2.68 5.65 1.93 7.69 1.93 9.91C1.93 12.26 2.8 14.36 4.76 16.72C6.65 19 9.46 21.4 12.71 24.17L12.72 24.18C13.86 25.15 15.15 26.25 16.49 27.42C17.84 26.24 19.14 25.14 20.28 24.17C23.53 21.4 26.34 19 28.23 16.72C30.19 14.36 31.06 12.26 31.06 9.91C31.06 7.69 30.31 5.65 28.96 4.18C27.62 2.73 25.78 1.93 23.78 1.93C22.31 1.93 20.96 2.39 19.77 3.31C18.71 4.13 17.98 5.17 17.54 5.9C17.32 6.27 16.93 6.49 16.5 6.49C16.06 6.49 15.67 6.27 15.45 5.9C15.01 5.17 14.28 4.13 13.22 3.31C12.03 2.39 10.68 1.93 9.21 1.93Z" fill="#956D84" fill-opacity="1.000000" fill-rule="nonzero"/>
</svg>
