<svg width="7.189362" height="12.666626" viewBox="0 0 7.18936 12.6666" fill="none" xmlns="http://www.w3.org/2000/svg" xmlns:xlink="http://www.w3.org/1999/xlink">
	<desc>
			Created with Pixso.
	</desc>
	<defs/>
	<path id="Vector" d="M4.44 12.66L2.41 12.66C2.07 12.66 1.79 12.39 1.79 12.05L1.79 7.47L0.61 7.47C0.27 7.47 0 7.2 0 6.86L0 4.9C0 4.56 0.27 4.28 0.61 4.28L1.79 4.28L1.79 3.3C1.79 2.33 2.1 1.5 2.68 0.91C3.26 0.31 4.07 0 5.02 0L6.57 0C6.91 0 7.18 0.27 7.18 0.61L7.18 2.43C7.18 2.77 6.91 3.05 6.57 3.05L5.53 3.05C5.21 3.05 5.13 3.11 5.11 3.13C5.08 3.16 5.05 3.25 5.05 3.51L5.05 4.28L6.49 4.28C6.6 4.28 6.71 4.31 6.8 4.36C6.99 4.47 7.11 4.67 7.11 4.9L7.11 6.86C7.11 7.2 6.84 7.47 6.5 7.47L5.05 7.47L5.05 12.05C5.05 12.39 4.77 12.66 4.44 12.66ZM2.54 11.92L4.31 11.92L4.31 7.14C4.31 6.91 4.49 6.73 4.72 6.73L6.37 6.73L6.37 5.03L4.72 5.03C4.49 5.03 4.31 4.84 4.31 4.61L4.31 3.51C4.31 3.22 4.34 2.89 4.56 2.64C4.82 2.34 5.24 2.3 5.53 2.3L6.44 2.3L6.44 0.74L5.02 0.74C3.49 0.74 2.54 1.72 2.54 3.3L2.54 4.61C2.54 4.84 2.35 5.03 2.13 5.03L0.74 5.03L0.74 6.73L2.13 6.73C2.35 6.73 2.54 6.91 2.54 7.14L2.54 11.92ZM6.57 0.74L6.57 0.74L6.57 0.74Z" fill="#FFFFFF" fill-opacity="1.000000" fill-rule="nonzero"/>
</svg>
