<svg width="74.000000" height="15.000000" viewBox="0 0 74 15" fill="none" xmlns="http://www.w3.org/2000/svg" xmlns:xlink="http://www.w3.org/1999/xlink">
	<desc>
			Created with Pixso.
	</desc>
	<defs/>
	<path id="Star 1" d="M7.5 0L5.81 5.18L0.36 5.18L4.77 8.38L3.09 13.56L7.5 10.36L11.9 13.56L10.22 8.38L14.63 5.18L9.18 5.18L7.5 0Z" fill="#F8E582" fill-opacity="1.000000" fill-rule="nonzero"/>
	<path id="Star 2" d="M22.5 0L20.81 5.18L15.36 5.18L19.77 8.38L18.09 13.56L22.5 10.36L26.9 13.56L25.22 8.38L29.63 5.18L24.18 5.18L22.5 0Z" fill="#F8E582" fill-opacity="1.000000" fill-rule="nonzero"/>
	<path id="Star 3" d="M37.5 0L35.81 5.18L30.36 5.18L34.77 8.38L33.09 13.56L37.5 10.36L41.9 13.56L40.22 8.38L44.63 5.18L39.18 5.18L37.5 0Z" fill="#F8E582" fill-opacity="1.000000" fill-rule="nonzero"/>
	<path id="Star 4" d="M51.5 0L49.81 5.18L44.36 5.18L48.77 8.38L47.09 13.56L51.5 10.36L55.9 13.56L54.22 8.38L58.63 5.18L53.18 5.18L51.5 0Z" fill="#F8E582" fill-opacity="1.000000" fill-rule="nonzero"/>
	<path id="Star 5" d="M66.5 0L64.81 5.18L59.36 5.18L63.77 8.38L62.09 13.56L66.5 10.36L70.9 13.56L69.22 8.38L73.63 5.18L68.18 5.18L66.5 0Z" fill="#F8E582" fill-opacity="1.000000" fill-rule="nonzero"/>
</svg>
