<svg width="14.620728" height="14.340210" viewBox="0 0 14.6207 14.3402" fill="none" xmlns="http://www.w3.org/2000/svg" xmlns:xlink="http://www.w3.org/1999/xlink">
	<desc>
			Created with Pixso.
	</desc>
	<defs/>
	<path id="Vector" d="M7.31 0C4.31 0 1.47 -0.26 0.38 2.47C-0.07 3.6 0 5.07 0 7.16C0 9.01 -0.06 10.74 0.38 11.85C1.47 14.59 4.33 14.33 7.3 14.33C10.17 14.33 13.13 14.62 14.23 11.85C14.68 10.72 14.61 9.27 14.61 7.16C14.61 4.37 14.77 2.56 13.38 1.2C11.98 -0.17 10.09 0 7.3 0L7.31 0ZM7.12 1.16C12.66 1.16 13.85 0.77 13.45 10.08C13.06 13.18 10.45 13.35 7.31 13.35C1.8 13.35 1.02 12.8 0.9 7.16C0.77 0.77 2.77 1.16 7.12 1.16ZM11.21 2.48C10.72 2.48 10.33 2.87 10.33 3.34C10.33 3.81 10.72 4.2 11.21 4.2C11.69 4.2 12.08 3.81 12.08 3.34C12.08 2.87 11.69 2.48 11.21 2.48ZM7.31 3.49C5.23 3.49 3.55 5.13 3.55 7.16C3.55 9.2 5.23 10.84 7.31 10.84C9.38 10.84 11.06 9.2 11.06 7.16C11.06 5.13 9.38 3.49 7.31 3.49ZM7.31 4.78C10.53 4.78 10.53 9.55 7.31 9.55C4.09 9.55 4.08 4.78 7.31 4.78Z" fill="#FFFFFF" fill-opacity="1.000000" fill-rule="nonzero"/>
</svg>
