<svg width="18.117645" height="18.117676" viewBox="0 0 18.1176 18.1177" fill="none" xmlns="http://www.w3.org/2000/svg" xmlns:xlink="http://www.w3.org/1999/xlink">
	<desc>
			Created with Pixso.
	</desc>
	<defs/>
	<path id="Vector" d="M18 16.93L12.74 11.67C13.74 10.44 14.34 8.87 14.34 7.17C14.34 3.21 11.12 0 7.17 0C3.21 0 0 3.21 0 7.17C0 11.12 3.21 14.34 7.17 14.34C8.87 14.34 10.44 13.74 11.67 12.74L16.93 18C17.08 18.15 17.32 18.15 17.47 18L18 17.47C18.15 17.32 18.15 17.08 18 16.93ZM7.17 12.83C4.04 12.83 1.5 10.29 1.5 7.17C1.5 4.04 4.04 1.5 7.17 1.5C10.29 1.5 12.83 4.04 12.83 7.17C12.83 10.29 10.29 12.83 7.17 12.83Z" fill="#956D84" fill-opacity="1.000000" fill-rule="nonzero"/>
</svg>
