<svg width="14.000031" height="11.844727" viewBox="0 0 14 11.8447" fill="none" xmlns="http://www.w3.org/2000/svg" xmlns:xlink="http://www.w3.org/1999/xlink">
	<desc>
			Created with Pixso.
	</desc>
	<defs/>
	<path id="Vector" d="M13.78 0.32C13.61 0.11 13.35 0 13.06 0C12.9 0 12.73 0.03 12.55 0.1L0.7 4.62C0.07 4.86 -0.01 5.22 0 5.41C0 5.61 0.11 5.96 0.75 6.16C0.75 6.17 0.75 6.17 0.76 6.17L3.22 6.87L4.55 10.67C4.73 11.19 5.13 11.51 5.61 11.51C5.91 11.51 6.2 11.39 6.46 11.15L7.98 9.75L10.18 11.53C10.18 11.53 10.18 11.53 10.18 11.53L10.21 11.54C10.21 11.55 10.21 11.55 10.21 11.55C10.46 11.74 10.72 11.84 10.99 11.84L10.99 11.84C11.5 11.84 11.9 11.46 12.02 10.88L13.96 1.29C14.04 0.9 13.98 0.56 13.78 0.32ZM4.04 6.74L8.78 4.32L5.83 7.45C5.78 7.5 5.75 7.57 5.73 7.64L5.16 9.94L4.04 6.74ZM5.9 10.55C5.88 10.57 5.86 10.58 5.84 10.6L6.37 8.46L7.33 9.23L5.9 10.55ZM13.16 1.13L11.22 10.71C11.2 10.81 11.14 11.02 10.99 11.02C10.91 11.02 10.81 10.98 10.72 10.9L8.22 8.89C8.22 8.89 8.22 8.89 8.22 8.89L6.73 7.69L11 3.15C11.14 3.01 11.15 2.79 11.03 2.63C10.91 2.47 10.69 2.42 10.51 2.51L3.49 6.1L1 5.38L12.85 0.86C12.95 0.82 13.02 0.82 13.06 0.82C13.08 0.82 13.13 0.82 13.14 0.84C13.17 0.87 13.19 0.96 13.16 1.13Z" fill="#FFFFFF" fill-opacity="1.000000" fill-rule="nonzero"/>
</svg>
