<svg width="13.711411" height="15.000000" viewBox="0 0 13.7114 15" fill="none" xmlns="http://www.w3.org/2000/svg" xmlns:xlink="http://www.w3.org/1999/xlink">
	<desc>
			Created with Pixso.
	</desc>
	<defs/>
	<path id="Vector" d="M8.28 0L5.42 0C2.43 0 0 2.43 0 5.42L0 7.99C0 10.22 1.36 12.23 3.42 13.04L3.42 14.71C3.42 14.82 3.49 14.92 3.59 14.97C3.63 14.99 3.67 15 3.71 15C3.78 15 3.85 14.97 3.9 14.92L5.56 13.42L8.28 13.42C11.27 13.42 13.71 10.99 13.71 7.99L13.71 5.42C13.71 2.43 11.27 0 8.28 0ZM13.14 7.99C13.14 10.67 10.96 12.85 8.28 12.85L5.45 12.85C5.38 12.85 5.31 12.88 5.25 12.92L3.99 14.07L3.99 12.84C3.99 12.72 3.92 12.61 3.8 12.57C1.87 11.89 0.57 10.05 0.57 7.99L0.57 5.42C0.57 2.74 2.74 0.57 5.42 0.57L8.28 0.57C10.96 0.57 13.14 2.74 13.14 5.42L13.14 7.99Z" fill="#FFFFFF" fill-opacity="1.000000" fill-rule="nonzero"/>
	<path id="Vector" d="M10.63 8.71L8.87 7.57C8.68 7.44 8.45 7.4 8.23 7.44C8 7.49 7.81 7.62 7.68 7.82L7.6 7.94C6.84 7.69 6 7.37 5.5 5.92L5.71 5.74C6.07 5.43 6.1 4.89 5.79 4.53L4.42 2.95C4.32 2.83 4.14 2.82 4.02 2.92L3.16 3.67C2.4 4.33 2.75 5.3 2.87 5.62C2.87 5.64 2.88 5.65 2.89 5.66C2.92 5.72 3.63 6.99 4.79 8.17C5.95 9.35 8.05 10.45 8.11 10.48C8.35 10.63 8.62 10.71 8.89 10.71C9.36 10.71 9.81 10.48 10.09 10.06L10.71 9.1C10.8 8.97 10.76 8.79 10.63 8.71ZM9.61 9.75C9.35 10.14 8.82 10.26 8.4 9.99C8.38 9.98 6.3 8.89 5.2 7.77C4.17 6.73 3.49 5.57 3.4 5.4C3.17 4.77 3.21 4.38 3.53 4.1L4.18 3.54L5.36 4.9C5.47 5.03 5.46 5.2 5.34 5.31L4.99 5.61C4.9 5.69 4.87 5.8 4.9 5.91C5.5 7.85 6.66 8.23 7.51 8.51L7.63 8.55C7.76 8.6 7.89 8.55 7.96 8.44L8.16 8.13C8.21 8.06 8.27 8.02 8.34 8C8.42 7.99 8.49 8 8.56 8.04L10.08 9.03L9.61 9.75Z" fill="#FFFFFF" fill-opacity="1.000000" fill-rule="nonzero"/>
	<path id="Vector" d="M7.5 4.64C7.35 4.59 7.19 4.68 7.15 4.83C7.11 4.98 7.19 5.14 7.35 5.19C7.77 5.31 8.11 5.65 8.23 6.07C8.27 6.2 8.38 6.28 8.51 6.28C8.53 6.28 8.56 6.28 8.58 6.27C8.74 6.23 8.82 6.07 8.78 5.92C8.61 5.3 8.12 4.81 7.5 4.64Z" fill="#FFFFFF" fill-opacity="1.000000" fill-rule="nonzero"/>
	<path id="Vector" d="M9.68 6.34C9.7 6.34 9.73 6.34 9.75 6.33C9.91 6.29 9.99 6.13 9.95 5.98C9.61 4.78 8.66 3.83 7.47 3.49C7.32 3.45 7.16 3.54 7.12 3.69C7.07 3.84 7.16 4 7.31 4.04C8.32 4.33 9.12 5.13 9.4 6.13C9.44 6.26 9.55 6.34 9.68 6.34Z" fill="#FFFFFF" fill-opacity="1.000000" fill-rule="nonzero"/>
	<path id="Vector" d="M7.35 2.16C7.19 2.12 7.04 2.21 6.99 2.36C6.95 2.51 7.04 2.67 7.19 2.71C8.89 3.19 10.25 4.55 10.73 6.26C10.76 6.38 10.88 6.47 11 6.47C11.03 6.47 11.06 6.46 11.08 6.45C11.23 6.41 11.32 6.25 11.28 6.1C10.74 4.21 9.24 2.7 7.35 2.16Z" fill="#FFFFFF" fill-opacity="1.000000" fill-rule="nonzero"/>
</svg>
